<svg id="图层_1" data-name="图层 1" xmlns="http://www.w3.org/2000/svg" viewBox="0 0 711.33 422.9"><defs><style>.cls-1{fill:#fff;fill-rule:evenodd;}</style></defs><path class="cls-1" d="M314.23,192.43s52.4,9.57,108.28,65.76,73.26,108.23,151.26,128.73c0,0-80.78,6.66-136.16-54.59-66.53-63.84-142.85-81.56-142.85-81.56a157.48,157.48,0,0,0-30.61-3C196.46,247.8,141.58,290,141.58,342s54.88,94.21,122.57,94.21c25.58,0,49.33-6,69-16.33h0l51.29,45.82c-33.53,19.29-75.17,30.72-120.27,30.72C153.2,496.44,63.25,427.3,63.25,342s89.95-154.43,200.9-154.43A258.73,258.73,0,0,1,314.23,192.43Z" transform="translate(-63.25 -73.54)"/><path class="cls-1" d="M314.23,192.43s52.4,9.57,108.28,65.76c2,2,4,4,5.89,6.06-61.24-36.11-146.88-50.42-215.71-21.78s-68.07,78.62-68.07,78.62h0a73.87,73.87,0,0,0-3,20.92c0,52,54.88,94.21,122.57,94.21,25.58,0,49.33-6,69-16.33h0l51.29,45.82c-33.53,19.29-75.17,30.72-120.27,30.72C153.2,496.44,63.25,427.3,63.25,342s89.95-154.43,200.9-154.43A258.73,258.73,0,0,1,314.23,192.43Z" transform="translate(-63.25 -73.54)"/><path class="cls-1" d="M333.13,419.9h0l51.29,45.82c-33.53,19.29-75.17,30.72-120.27,30.72C153.2,496.44,63.25,427.3,63.25,342c0-72.26,64.57-132.92,151.77-149.77h0c-29.26,9.56-168.13,108.57-85.93,197.28C221.49,489.26,333.13,419.9,333.13,419.9Z" transform="translate(-63.25 -73.54)"/><path class="cls-1" d="M333.13,419.9l51.29,45.82c-33.53,19.29-75.17,30.72-120.27,30.72-88.57,0-163.74-44.05-190.47-105.2,25,22.13,61.13,44.92,108.24,57.89C269,473.13,333.13,419.9,333.13,419.9Z" transform="translate(-63.25 -73.54)"/><path class="cls-1" d="M421.15,73.54c98.13,0,180.88,50.59,206.52,119.7a262,262,0,0,0-85.24-3.78c-23-33.44-68.67-56.23-121.28-56.23-52.89,0-98.77,23-121.63,56.75A262,262,0,0,0,215,192.25C241.07,123.66,323.49,73.54,421.15,73.54Z" transform="translate(-63.25 -73.54)"/><path class="cls-1" d="M523.61,491.61s-52.4-9.57-108.28-65.76S342.07,317.62,264.07,297.12c0,0,80.79-6.67,136.16,54.59,66.53,63.83,142.85,81.56,142.85,81.56a158.35,158.35,0,0,0,30.61,3c67.69,0,122.57-42.18,122.57-94.21s-54.88-94.21-122.57-94.21c-25.58,0-49.33,6-69,16.33h0l-51.29-45.81C487,199,528.59,187.59,573.69,187.59c110.95,0,200.9,69.14,200.9,154.43s-90,154.42-200.9,154.42A259.52,259.52,0,0,1,523.61,491.61Z" transform="translate(-63.25 -73.54)"/><path class="cls-1" d="M523.61,491.61s-52.4-9.57-108.28-65.76q-3-3-5.89-6.06c61.24,36.11,146.88,50.41,215.71,21.78s68.07-78.63,68.07-78.63h0a73.92,73.92,0,0,0,3-20.92c0-52-54.88-94.21-122.57-94.21-25.58,0-49.33,6-69,16.33h0l-51.29-45.81C487,199,528.59,187.6,573.69,187.6c110.95,0,200.9,69.13,200.9,154.42s-90,154.42-200.9,154.42A259.52,259.52,0,0,1,523.61,491.61Z" transform="translate(-63.25 -73.54)"/><path class="cls-1" d="M504.71,264.14h0l-51.29-45.81C487,199,528.59,187.6,573.69,187.6c110.95,0,200.9,69.13,200.9,154.42,0,72.26-64.57,132.91-151.77,149.76h0c29.26-9.55,168.13-108.56,85.93-197.27C616.35,194.78,504.71,264.14,504.71,264.14Z" transform="translate(-63.25 -73.54)"/><path class="cls-1" d="M504.71,264.13l-51.29-45.81C487,199,528.59,187.6,573.69,187.6c88.57,0,163.74,44.05,190.47,105.2-25-22.13-61.13-44.92-108.24-57.9C568.81,210.9,504.71,264.13,504.71,264.13Z" transform="translate(-63.25 -73.54)"/></svg>