<svg viewBox="0 0 711.33 422.9" xmlns="http://www.w3.org/2000/svg"><g fill="#fff" fill-rule="evenodd" transform="translate(-63.25 -73.54)"><path d="m314.23 192.43s52.4 9.57 108.28 65.76 73.26 108.23 151.26 128.73c0 0-80.78 6.66-136.16-54.59-66.53-63.84-142.85-81.56-142.85-81.56a157.48 157.48 0 0 0 -30.61-3c-67.69.03-122.57 42.23-122.57 94.23s54.88 94.21 122.57 94.21c25.58 0 49.33-6 69-16.33l51.29 45.82c-33.53 19.29-75.17 30.72-120.27 30.72-110.97.02-200.92-69.12-200.92-154.42s89.95-154.43 200.9-154.43a258.73 258.73 0 0 1 50.08 4.86z"/><path d="m314.23 192.43s52.4 9.57 108.28 65.76c2 2 4 4 5.89 6.06-61.24-36.11-146.88-50.42-215.71-21.78s-68.07 78.62-68.07 78.62a73.87 73.87 0 0 0 -3 20.92c0 52 54.88 94.21 122.57 94.21 25.58 0 49.33-6 69-16.33l51.29 45.82c-33.53 19.29-75.17 30.72-120.27 30.72-111.01.01-200.96-69.13-200.96-154.43s89.95-154.43 200.9-154.43a258.73 258.73 0 0 1 50.08 4.86z"/><path d="m333.13 419.9 51.29 45.82c-33.53 19.29-75.17 30.72-120.27 30.72-110.95 0-200.9-69.14-200.9-154.44 0-72.26 64.57-132.92 151.77-149.77-29.26 9.56-168.13 108.57-85.93 197.28 92.4 99.75 204.04 30.39 204.04 30.39z"/><path d="m333.13 419.9 51.29 45.82c-33.53 19.29-75.17 30.72-120.27 30.72-88.57 0-163.74-44.05-190.47-105.2 25 22.13 61.13 44.92 108.24 57.89 87.08 24 151.21-29.23 151.21-29.23z"/><path d="m421.15 73.54c98.13 0 180.88 50.59 206.52 119.7a262 262 0 0 0 -85.24-3.78c-23-33.44-68.67-56.23-121.28-56.23-52.89 0-98.77 23-121.63 56.75a262 262 0 0 0 -84.52 2.27c26.07-68.59 108.49-118.71 206.15-118.71z"/><path d="m523.61 491.61s-52.4-9.57-108.28-65.76-73.26-108.23-151.26-128.73c0 0 80.79-6.67 136.16 54.59 66.53 63.83 142.85 81.56 142.85 81.56a158.35 158.35 0 0 0 30.61 3c67.69 0 122.57-42.18 122.57-94.21s-54.88-94.21-122.57-94.21c-25.58 0-49.33 6-69 16.33l-51.29-45.81c33.6-19.37 75.19-30.78 120.29-30.78 110.95 0 200.9 69.14 200.9 154.43s-90 154.42-200.9 154.42a259.52 259.52 0 0 1 -50.08-4.83z"/><path d="m523.61 491.61s-52.4-9.57-108.28-65.76q-3-3-5.89-6.06c61.24 36.11 146.88 50.41 215.71 21.78s68.07-78.63 68.07-78.63a73.92 73.92 0 0 0 3-20.92c0-52-54.88-94.21-122.57-94.21-25.58 0-49.33 6-69 16.33l-51.29-45.81c33.64-19.33 75.23-30.73 120.33-30.73 110.95 0 200.9 69.13 200.9 154.42s-90 154.42-200.9 154.42a259.52 259.52 0 0 1 -50.08-4.83z"/><path d="m504.71 264.14-51.29-45.81c33.58-19.33 75.17-30.73 120.27-30.73 110.95 0 200.9 69.13 200.9 154.42 0 72.26-64.57 132.91-151.77 149.76 29.26-9.55 168.13-108.56 85.93-197.27-92.4-99.73-204.04-30.37-204.04-30.37z"/><path d="m504.71 264.13-51.29-45.81c33.58-19.32 75.17-30.72 120.27-30.72 88.57 0 163.74 44.05 190.47 105.2-25-22.13-61.13-44.92-108.24-57.9-87.11-24-151.21 29.23-151.21 29.23z"/></g></svg>